# xmcd
#
# Track frame offsets:
#	150
#	16418
#	32876
#	48625
#	72277
#	89759
#	102917
#	120662
#	133838
#	144798
#	165327
#
# Disc length: 2393 seconds
#
# Revision: 0
# Processed by: cddbd v1.5.2PL0 Copyright (c) Steve Scherf et al.
# Submitted via: audiograbber 1.83.01
#
DISCID=9609570b
DTITLE=John Merritt - Mary River
DYEAR=1900
DGENRE=Country
TTITLE0=Save The Mary
TTITLE1=Gotta Get Home
TTITLE2=Gold Miners
TTITLE3=Memory Hall
TTITLE4=Murray Cod
TTITLE5=Ashes To The Wind
TTITLE6=Pickin' ' Em Up
TTITLE7=Mighty Burdikin
TTITLE8=Equalizer Breathalizer
TTITLE9=Is It Too Late For Me
TTITLE10=Home Ward Memories
EXTD=
EXTT0=
EXTT1=
EXTT2=
EXTT3=
EXTT4=
EXTT5=
EXTT6=
EXTT7=
EXTT8=
EXTT9=
EXTT10=
PLAYORDER=
